<svg xmlns="http://www.w3.org/2000/svg" xmlns:xlink="http://www.w3.org/1999/xlink" xml:space="preserve" width="296.686mm" height="43.0388mm" style="shape-rendering:geometricPrecision; text-rendering:geometricPrecision; image-rendering:optimizeQuality; fill-rule:evenodd; clip-rule:evenodd" viewBox="0 0 29668.6 4303.88">
 <defs>
  <style type="text/css">
   <![CDATA[
    .fil1 {fill:#E32124;fill-rule:nonzero}
    .fil0 {fill:#075095;fill-rule:nonzero}
   ]]>
  </style>
 </defs>
 <g id="Ebene_x0020_1">
  <metadata id="CorelCorpID_0Corel-Layer"></metadata>
  <path class="fil0" d="M9960.68 2276.53c0,-381.24 -224.83,-694.04 -620.68,-694.04 -449.65,0 -635.39,371.51 -669.61,694.04l1290.29 0 0 0zm298.16 1383.15c-175.96,63.5 -376.38,161.26 -786.9,161.26 -884.66,0 -1290.22,-537.56 -1290.22,-1348.91 0,-738.02 464.22,-1260.92 1168.05,-1260.92 830.86,0 1099.68,605.98 1099.68,1407.56l-1779.06 0c0,493.64 386.12,830.83 821.06,830.83 303.03,0 654.96,-156.39 767.39,-249.27l0 459.45z"></path>
  <path class="fil0" d="M11114.19 1269.71l430.14 0 0 386.11 9.74 0c122.23,-259 386.11,-444.71 650.06,-444.71 136.84,0 205.25,14.62 303,34.16l0 410.55c-83.08,-34.22 -175.93,-43.98 -254.17,-43.98 -410.5,0 -679.28,391 -679.28,1016.6l0 1133.86 -459.49 0 0 -2492.59z"></path>
  <path class="fil0" d="M13059.55 1269.71l430.07 0 0 361.69 9.77 0c175.93,-288.37 425.17,-420.29 791.77,-420.29 288.33,0 576.69,146.6 708.63,483.82 171.06,-356.78 547.37,-483.82 772.16,-483.82 635.42,0 865.15,410.49 865.15,953l0 1598.19 -459.42 0 0 -1485.77c0,-307.91 -73.34,-694.04 -444.78,-694.04 -469.2,0 -654.9,459.44 -654.9,923.76l0 1256.05 -459.42 0 0 -1485.77c0,-307.91 -73.31,-694.04 -444.71,-694.04 -469.2,0 -654.94,459.44 -654.94,923.76l0 1256.05 -459.38 0 0 -2492.59z"></path>
  <path class="fil0" d="M18939.26 2574.64c-97.72,0 -195.48,-9.73 -293.3,-9.73 -249.2,0 -865.05,39.08 -865.05,478.92 0,263.96 254.11,405.67 464.33,405.67 454.55,0 694.02,-283.46 694.02,-654.94l0 -219.92zm-1363.59 -1128.93c229.69,-136.89 503.37,-234.6 821.09,-234.6 713.49,0 1001.96,351.9 1001.96,1031.19l0 1031.27c0,283.49 9.73,415.39 19.47,488.73l-430.11 0 0 -322.54 -9.73 0c-107.53,151.44 -351.86,381.18 -772.27,381.18 -537.53,0 -913.84,-234.57 -913.84,-777.11 0,-625.58 684.25,-821.07 1158.32,-821.07 180.79,0 307.93,0 488.7,9.8 0,-430.09 -156.42,-650.07 -615.85,-650.07 -258.93,0 -537.63,97.8 -723.3,254.2l-24.44 -390.98 0 0z"></path>
  <path class="fil1" d="M21549.21 1641.21l-659.73 0 0 1363.54c0,288.36 175.93,444.75 386.15,444.75 141.68,0 244.37,-43.96 312.81,-87.94l0 390.97c-102.76,29.31 -244.47,68.41 -391.02,68.41 -474.02,0 -767.36,-224.8 -767.36,-723.34l0 -1456.39 -561.97 0 0 -371.5 561.97 0 0 -874 459.42 -146.62 0 1020.62 659.73 0 0 371.5z"></path>
  <path class="fil1" d="M23787.69 2276.53c0,-381.24 -224.79,-694.04 -620.67,-694.04 -449.58,0 -635.32,371.51 -669.43,694.04l1290.1 0 0 0zm298.21 1383.15c-175.93,63.5 -376.38,161.26 -786.87,161.26 -884.63,0 -1290.32,-537.56 -1290.32,-1348.91 0,-738.02 464.25,-1260.92 1168.08,-1260.92 830.93,0 1099.64,605.98 1099.64,1407.56l-1778.84 0c0,493.64 386.11,830.83 820.95,830.83 303.07,0 655,-156.39 767.36,-249.27l0 459.45z"></path>
  <path class="fil1" d="M24755.54 3273.57c180.98,117.29 439.99,175.93 571.96,175.93 210.01,0 469.23,-87.94 469.23,-356.77 0,-454.55 -1080.17,-415.47 -1080.17,-1114.31 0,-518.09 386.11,-767.31 879.69,-767.31 215.05,0 390.98,43.97 571.78,97.71l-39.05 400.78c-102.56,-63.54 -376.38,-127.11 -483.77,-127.11 -234.63,0 -439.98,97.8 -439.98,303.05 0,508.3 1080.13,361.64 1080.13,1158.29 0,532.7 -425.06,777.11 -869.91,777.11 -234.57,0 -474.07,-24.42 -684.25,-136.85l24.34 -410.52 0 0z"></path>
  <path class="fil1" d="M28215.97 1641.21l-659.9 0 0 1363.54c0,288.36 176.1,444.75 386.11,444.75 141.78,0 244.3,-43.96 312.81,-87.94l0 390.97c-102.59,29.31 -244.33,68.41 -390.98,68.41 -474.07,0 -767.37,-224.8 -767.37,-723.34l0 -1456.39 -562.01 0 0 -371.5 562.01 0 0 -874 459.43 -146.62 0 1020.62 659.9 0 0 371.5z"></path>
  <path class="fil0" d="M29126.6 706.57l90.59 0c60.96,0 113.53,-8.07 113.53,-82.47 0,-64.88 -59.27,-75.71 -112.08,-75.71l-92.04 0 0 158.18zm-102.55 -236.57l205.31 0c132.68,0 204.16,45.97 204.16,162.21 0,94.68 -54.02,140.62 -144.61,148.76l148.66 242.01 -105.41 0 -143.19 -237.96 -62.37 0 0 237.96 -102.55 0 0 -552.98zm556.93 278.52c0,-228.49 -164.93,-393.42 -369.04,-393.42 -204.16,0 -369.08,164.93 -369.08,393.42 0,228.49 164.92,393.43 369.08,393.43 204.11,0 369.04,-164.94 369.04,-393.43l0 0zm-857.15 0c0,-269.03 218.94,-488.1 488.11,-488.1 268.92,0 488.06,219.07 488.06,488.1 0,269.02 -219.14,488.09 -488.06,488.09 -269.17,0 -488.11,-219.07 -488.11,-488.09l0 0z"></path>
  <path class="fil1" d="M-0.01 2149.06c0,1189.95 964.74,2154.83 2154.82,2154.83 1190.23,0 2154.97,-964.88 2154.97,-2154.83 0,-1189.98 -964.74,-2154.81 -2154.97,-2154.81 -1190.08,0 -2154.82,964.83 -2154.82,2154.81l0 0z"></path>
  <path class="fil0" d="M6324.31 3449.5c518.02,0 733.08,-513.15 733.08,-928.63 0,-464.25 -239.47,-938.38 -738.02,-938.38 -498.47,0 -693.98,469.2 -684.17,923.76 -9.81,391 195.51,943.25 689.11,943.25l0 0zm752.62 -39.1l-9.77 0c-122.21,185.74 -405.63,410.54 -850.41,410.54 -752.62,0 -1070.33,-669.58 -1070.33,-1348.91 0,-669.56 351.86,-1260.92 1075.27,-1260.92 434.94,0 684.18,171.03 825.92,400.73l9.78 0 0 -1363.84 459.45 0 0 3514.3 -439.91 0 0 -351.9z"></path>
 </g>
</svg>